<?xml version="1.0" encoding="utf-8"?>
<!-- Generator: Adobe Illustrator 19.1.0, SVG Export Plug-In . SVG Version: 6.00 Build 0)  -->
<svg version="1.1"
	 id="svg2855" inkscape:export-ydpi="19.731136" inkscape:export-xdpi="19.731136" inkscape:export-filename="/home/duffy/Documents/Fedora/Fedora Logo Packs - 10 Nov 2010/fedora-logos/fedora/fedora_logo.png" sodipodi:docname="fedora_logo.svg" inkscape:version="0.48.1 r9760" xmlns:rdf="http://www.w3.org/1999/02/22-rdf-syntax-ns#" xmlns:svg="http://www.w3.org/2000/svg" xmlns:inkscape="http://www.inkscape.org/namespaces/inkscape" xmlns:sodipodi="http://sodipodi.sourceforge.net/DTD/sodipodi-0.dtd" xmlns:dc="http://purl.org/dc/elements/1.1/" xmlns:cc="http://creativecommons.org/ns#"
	 xmlns="http://www.w3.org/2000/svg" xmlns:xlink="http://www.w3.org/1999/xlink" x="0px" y="0px" viewBox="292.7 78.3 707.7 215.1"
	 style="enable-background:new 292.7 78.3 707.7 215.1;" xml:space="preserve">
<style type="text/css">
	.st0{fill:#3C6EB4;}
	.st1{fill:#294172;}
	.st2{fill:#FFFFFF;}
</style>
<g id="g11328" inkscape:export-ydpi="25.525427" inkscape:export-xdpi="25.525427" inkscape:export-filename="/home/duffy/Documents/Fedora/Fedora Logo Packs - 10 Nov 2010/fedora-logos/fedora/fedora_logo.png">
	<g id="g5247">
		<path id="path4724" class="st0" d="M896.6,282.3v4.6c0,0.3-0.2,0.5-0.6,0.6l0,0c-0.3,0-0.5-0.2-0.6-0.6v-7.3
			c0-0.4,0.2-0.6,0.5-0.6h0.1c0.3,0,0.5,0.2,0.6,0.7l2.6,5.9c0-0.1,0.6-1.5,1.7-4l1.1-2.3c0.1-0.1,0.3-0.2,0.4-0.2h0.1
			c0.3,0,0.5,0.2,0.5,0.6v7.3c-0.1,0.4-0.3,0.6-0.6,0.6l0,0c-0.4-0.1-0.6-0.3-0.6-0.6v-4.6c-1.4,3.2-2.2,4.9-2.2,5
			c-0.2,0.1-0.3,0.2-0.5,0.2c-0.3,0-0.6-0.3-0.8-1L896.6,282.3 M888.8,278.9h5.4c0.4,0.1,0.5,0.3,0.5,0.6v0.1c0,0.3-0.2,0.5-0.6,0.5
			h-2v6.8c0,0.3-0.2,0.5-0.6,0.6l0,0c-0.3,0-0.5-0.2-0.6-0.6v-6.8h-2c-0.4-0.1-0.6-0.3-0.6-0.6C888.3,279.1,888.5,278.9,888.8,278.9
			"/>
		<path id="path17" class="st0" d="M457.6,250c0,0,0,0-67.5,0c1.1,14.6,12.9,25.5,28.6,25.5c11.1,0,20.7-4.6,28.4-12
			c1.5-1.5,3.3-2,5.2-2c2.6,0,5.2,1.3,7,3.5c1.1,1.5,1.7,3.3,1.7,5c0,2.4-1.1,5-3.1,7c-9.2,9.8-24.7,16.4-40,16.4
			c-27.7,0-50-22.3-50-50c0-27.7,21.6-50,49.3-50c27.5,0,48,21.4,48,49.6C465.4,247.1,461.7,250,457.6,250z M417.4,211.3
			c-14.6,0-24.7,9.6-26.9,23.6c33,0,53.7,0,53.7,0C442.3,221.6,431.8,211.3,417.4,211.3L417.4,211.3z"/>
		<path id="path19" class="st0" d="M650.3,293.4c-27.7,0-50-22.3-50-50c0-27.7,22.3-50,50-50s50,22.3,50,50
			C700.3,271.1,678.1,293.4,650.3,293.4L650.3,293.4z M650.3,212.4c-17.5,0-28.8,14-28.8,31s11.4,31,28.8,31c17.5,0,28.8-14,28.8-31
			S667.8,212.4,650.3,212.4z"/>
		<path id="path21" class="st0" d="M772.5,193.4c-14.6,0-24.3,4.3-32.9,15.2l-0.8-5.1l0,0c-0.7-5.3-5.2-9.4-10.6-9.4
			c-5.9,0-10.7,4.8-10.7,10.7l0,0l0,0l0,0l0,0v76.9c0,5.9,4.8,10.7,10.7,10.7s10.7-4.8,10.7-10.7v-41.3c0-18.8,16.4-28.2,33.6-28.2
			c5.2,0,9.4-4.4,9.4-9.6C781.9,197.5,777.8,193.4,772.5,193.4L772.5,193.4z"/>
		<path id="path23" class="st0" d="M885.4,243.4c0.2-26.9-19-50-50-50c-27.7,0-50.2,22.3-50.2,50c0,27.7,21.8,50,48.3,50
			c13.2,0,25.1-6.8,30.3-13.9l2.6,6.6l0,0c1.4,3.7,5,6.4,9.2,6.4c5.4,0,9.8-4.4,9.8-9.8l0,0v-25.6l0,0L885.4,243.4L885.4,243.4
			L885.4,243.4z M835.4,274.4c-17.5,0-28.8-14-28.8-31s11.4-31,28.8-31c17.5,0,28.8,14,28.8,31S852.9,274.4,835.4,274.4z"/>
		<path id="path25" class="st0" d="M583.2,153.9c0-5.9-4.8-10.5-10.7-10.5s-10.7,4.6-10.7,10.5v56.3c-5.5-10-17.2-16.8-31.2-16.8
			c-28.4,0-47.4,21.4-47.4,50s19.7,50,47.4,50c12.4,0,23.1-5.1,29.5-14l2.4,6c1.5,4.1,5.4,7.1,10.1,7.1c5.9,0,10.7-4.8,10.7-10.7
			l0,0l0,0L583.2,153.9L583.2,153.9L583.2,153.9z M533.2,274.4c-17.5,0-28.6-14-28.6-31s11.1-31,28.6-31s28.6,13.3,28.6,31
			C561.8,261.1,550.6,274.4,533.2,274.4z"/>
		<path id="path27" class="st0" d="M360.5,144c-2-0.3-3.9-0.4-5.9-0.4c-22.1,0-40.1,18-40.1,40.1v12.5h-13.1c-4.8,0-8.7,3.9-8.7,8.7
			c0,4.8,3.9,9.6,8.7,9.6h13.1v67.2c0,5.9,4.8,10.7,10.7,10.7c5.9,0,10.7-4.8,10.7-10.7v-67.2h14.5c4.8,0,8.7-4.8,8.7-9.6
			c0-4.8-3.9-8.7-8.7-8.7h-14.5v-12.5c0-10.3,8.4-20.1,18.7-20.1c0.9,0,1.9,0.1,2.8,0.2c5.8,0.9,11.3-1.8,12.2-7.6
			C370.3,150.4,366.3,144.9,360.5,144L360.5,144z"/>
	</g>
	<g id="g5241">
		<path id="path5239" class="st0" d="M991.9,187.2v4.6c0,0.3-0.2,0.5-0.6,0.6l0,0c-0.3,0-0.5-0.2-0.6-0.6v-7.3
			c0-0.4,0.2-0.6,0.5-0.6h0.1c0.3,0,0.5,0.2,0.6,0.7l2.6,5.9c0-0.1,0.6-1.5,1.7-4l1.1-2.3c0.1-0.1,0.3-0.2,0.4-0.2h0.1
			c0.3,0,0.5,0.2,0.5,0.6v7.3c-0.1,0.4-0.3,0.6-0.6,0.6l0,0c-0.4-0.1-0.6-0.3-0.6-0.6v-4.6c-1.4,3.2-2.2,4.9-2.2,5
			c-0.2,0.1-0.3,0.2-0.5,0.2c-0.3,0-0.6-0.3-0.8-1L991.9,187.2 M984.1,183.8h5.4c0.4,0.1,0.5,0.3,0.5,0.6v0.1c0,0.3-0.2,0.5-0.6,0.5
			h-2v6.8c0,0.3-0.2,0.5-0.6,0.6l0,0c-0.3,0-0.5-0.2-0.6-0.6V185h-2c-0.4-0.1-0.6-0.3-0.6-0.6C983.7,184,983.9,183.8,984.1,183.8"/>
		<path id="path35" class="st1" d="M1000.4,138.2c0-33.1-26.8-59.9-59.9-59.9s-59.9,26.8-59.9,59.9l0,0v46.4l0,0
			c0,7.5,6.1,13.6,13.6,13.6c0,0,0,0,0.1,0l0,0h46.2l0,0C973.6,198.1,1000.4,171.3,1000.4,138.2L1000.4,138.2z"/>
		<path id="path39" class="st0" d="M958.1,92.5c-15.5,0-28.1,12.6-28.1,28.1l0,0v14.9h-14.8l0,0c-15.5,0-28.1,12.5-28.1,28.1
			c0,15.5,12.6,28.1,28.1,28.1s28.1-12.6,28.1-28.1l0,0v-14.9h14.8l0,0c15.5,0,28.1-12.5,28.1-28C986.2,105.1,973.6,92.5,958.1,92.5
			L958.1,92.5z M929.9,163.6c0,8.2-6.7,14.8-14.8,14.8c-8.2,0-14.9-6.6-14.9-14.8c0-8.2,6.7-15,14.9-15l0,0h12.7l0,0
			c1.2,0,2.1,0.9,2.1,2.1l0,0V163.6L929.9,163.6L929.9,163.6z M958.1,135.5C958.1,135.5,958,135.5,958.1,135.5h-12.7l0,0
			c-1.2,0-2.1-0.9-2.1-2.1l0,0v-12.8c0-8.2,6.7-14.8,14.8-14.8c8.2,0,14.9,6.6,14.9,14.8C973,128.8,966.3,135.5,958.1,135.5
			L958.1,135.5z"/>
		<path id="path41" class="st2" d="M929.9,135.5v-14.9l0,0c0-15.5,12.6-28.1,28.1-28.1c2.4,0,4,0.3,6.2,0.8c3.2,0.8,5.8,3.4,5.8,6.5
			c0,3.7-2.7,6.3-6.6,6.3c-1.9,0-2.6-0.4-5.4-0.4c-8.2,0-14.8,6.6-14.8,14.8v12.9l0,0c0,1.2,0.9,2.1,2.1,2.1l0,0h9.7
			c3.6,0,6.6,2.9,6.6,6.5s-2.9,6.5-6.6,6.5h-11.8v14.9l0,0c0,15.5-12.6,28.1-28.1,28.1c-2.4,0-4-0.3-6.2-0.8
			c-3.2-0.8-5.8-3.4-5.8-6.5c0-3.7,2.7-6.3,6.6-6.3c1.9,0,2.6,0.4,5.4,0.4c8.2,0,14.8-6.6,14.8-14.8v-12.9c0-1.2-0.9-2.1-2.1-2.1
			l0,0h-9.7c-3.6,0-6.6-2.9-6.6-6.5c0-3.7,3-6.5,6.6-6.5H929.9L929.9,135.5z"/>
	</g>
</g>
</svg>
