<?xml version="1.0" encoding="utf-8"?>
<!-- Generator: Adobe Illustrator 18.1.1, SVG Export Plug-In . SVG Version: 6.00 Build 0)  -->
<svg version="1.1" baseProfile="tiny" id="Layer_1" xmlns="http://www.w3.org/2000/svg" xmlns:xlink="http://www.w3.org/1999/xlink"
	 x="0px" y="0px" viewBox="12.7 328.2 373.6 113.1" xml:space="preserve">
<line fill="none" x1="90.1" y1="355.9" x2="164.1" y2="355.9"/>
<path fill="#FFFFFF" d="M12.7,328.2v113.1H174V328.2H12.7z M68.8,373.1H58.1v-7.7c0-5.1-2.3-7.1-5.8-7.1s-5.8,1.9-5.8,7.1v38.7
	c0,5.1,2.3,7,5.8,7s5.8-1.8,5.8-7v-10.2h10.6v9.5c0,11.5-5.7,18-16.8,18s-16.8-6.6-16.8-18v-37.3c0-11.5,5.7-18,16.8-18
	s16.8,6.6,16.8,18V373.1z M111.1,420.6H99.7v-30.7H86.9v30.7H75.6V349h11.3v30.7h12.8V349h11.5V420.6z M150,359.2h-19.4v20H146v10.2
	h-15.5v21H150v10.2h-30.7V349H150L150,359.2L150,359.2z"/>
<path fill="#FFFFFF" d="M199.1,420.6h-11.3V349h11.3v30.7h12.8V349h11.5v71.7h-11.5v-30.7h-12.8V420.6z"/>
<path fill="#FFFFFF" d="M268,420.6h-11.4l-1.9-13h-13.8l-1.9,13h-10.3l11.5-71.7h16.5L268,420.6z M242.3,397.9h10.9l-5.3-36.2h-0.2
	L242.3,397.9z"/>
<path fill="#FFFFFF" d="M305.8,393.9v9.5c0,11.5-5.7,18-16.8,18c-11.1,0-16.8-6.6-16.8-18v-37.3c0-11.5,5.7-18,16.8-18
	c11.1,0,16.8,6.6,16.8,18v7h-10.6v-7.7c0-5.1-2.3-7.1-5.8-7.1s-5.8,1.9-5.8,7.1v38.7c0,5.1,2.3,7,5.8,7s5.8-1.8,5.8-7v-10.2
	L305.8,393.9L305.8,393.9z"/>
<path fill="#FFFFFF" d="M327.4,392.1l-3.5,6.6v22h-11.3V349h11.3v31h0.2l14.5-31h11.3l-15.7,31.9l15.7,39.7h-11.6L327.4,392.1z"/>
<path fill="#FFFFFF" d="M369.7,348.1c11,0,16.6,6.6,16.6,18v2.3h-10.6v-3c0-5.1-2-7.1-5.6-7.1s-5.6,1.9-5.6,7.1
	c0,5.2,2.3,9.1,9.6,15.6c9.4,8.3,12.4,14.2,12.4,22.4c0,11.5-5.7,18-16.8,18c-11.1,0-16.8-6.6-16.8-18V399h10.6v5.1
	c0,5.1,2.3,7,5.8,7s5.8-1.8,5.8-7c0-5.2-2.3-9.1-9.6-15.6c-9.4-8.3-12.4-14.2-12.4-22.4C353.1,354.7,358.7,348.1,369.7,348.1z"/>
</svg>
