<?xml version="1.0" encoding="utf-8"?>
<!-- Generator: Adobe Illustrator 19.1.0, SVG Export Plug-In . SVG Version: 6.00 Build 0)  -->
<svg version="1.1" id="Layer_1" xmlns="http://www.w3.org/2000/svg" xmlns:xlink="http://www.w3.org/1999/xlink" x="0px" y="0px"
	 viewBox="-2404 1024.9 373.6 113.1" style="enable-background:new -2404 1024.9 373.6 113.1;" xml:space="preserve">
<style type="text/css">
	.st0{fill:#8A1315;}
</style>
<line class="st0" x1="-2326.7" y1="1052.6" x2="-2252.7" y2="1052.6"/>
<path class="st0" d="M-2404.1,1024.9V1138h161.3v-113.1H-2404.1z M-2348,1069.8h-10.7v-7.7c0-5.1-2.3-7.1-5.8-7.1s-5.8,1.9-5.8,7.1
	v38.7c0,5.1,2.3,7,5.8,7s5.8-1.8,5.8-7v-10.2h10.6v9.5c0,11.5-5.7,18-16.8,18c-11.1,0-16.8-6.6-16.8-18v-37.3c0-11.5,5.7-18,16.8-18
	c11.1,0,16.8,6.6,16.8,18v7H-2348z M-2305.7,1117.3h-11.4v-30.7h-12.8v30.7h-11.3v-71.6h11.3v30.7h12.8v-30.7h11.5L-2305.7,1117.3
	L-2305.7,1117.3z M-2266.8,1055.9h-19.4v20h15.4v10.2h-15.5v21h19.5v10.2h-30.7v-71.6h30.7V1055.9L-2266.8,1055.9z"/>
<path class="st0" d="M-2217.7,1117.3h-11.3v-71.6h11.3v30.7h12.8v-30.7h11.5v71.7h-11.5v-30.7h-12.8V1117.3z"/>
<path class="st0" d="M-2148.8,1117.3h-11.4l-1.9-13h-13.8l-1.9,13h-10.3l11.5-71.7h16.5L-2148.8,1117.3z M-2174.5,1094.6h10.9
	l-5.3-36.2h-0.2L-2174.5,1094.6z"/>
<path class="st0" d="M-2111,1090.6v9.5c0,11.5-5.7,18-16.8,18c-11.1,0-16.8-6.6-16.8-18v-37.3c0-11.5,5.7-18,16.8-18
	c11.1,0,16.8,6.6,16.8,18v7h-10.6v-7.7c0-5.1-2.3-7.1-5.8-7.1s-5.8,1.9-5.8,7.1v38.7c0,5.1,2.3,7,5.8,7s5.8-1.8,5.8-7v-10.2H-2111
	L-2111,1090.6z"/>
<path class="st0" d="M-2089.4,1088.8l-3.5,6.6v22h-11.3v-71.7h11.3v31h0.2l14.5-31h11.3l-15.7,31.9l15.7,39.7h-11.6L-2089.4,1088.8z
	"/>
<path class="st0" d="M-2047.1,1044.8c11,0,16.6,6.6,16.6,18v2.3h-10.6v-3c0-5.1-2-7.1-5.6-7.1c-3.6,0-5.6,1.9-5.6,7.1
	c0,5.2,2.3,9.1,9.6,15.6c9.4,8.3,12.4,14.2,12.4,22.4c0,11.5-5.7,18-16.8,18s-16.8-6.6-16.8-18v-4.4h10.6v5.1c0,5.1,2.3,7,5.8,7
	s5.8-1.8,5.8-7c0-5.2-2.3-9.1-9.6-15.6c-9.4-8.3-12.4-14.2-12.4-22.4C-2063.7,1051.4-2058.1,1044.8-2047.1,1044.8z"/>
</svg>
