<?xml version="1.0" encoding="UTF-8" standalone="no"?><svg xmlns="http://www.w3.org/2000/svg" xmlns:xlink="http://www.w3.org/1999/xlink" clip-rule="evenodd" stroke-miterlimit="4.00" viewBox="0 0 1024 768"><desc>SVG generated by Keynote</desc><defs></defs><g transform="matrix(1.00, 0.00, -0.00, -1.00, 0.0, 768.0)"><path d="M 0.0 768.0 L 1024.0 768.0 L 1024.0 0.0 L 0.0 0.0 Z M 0.0 768.0 " fill="#FEFFFF"></path><image xlink:href="FDA103D60BE695C1FDEAB80311BF1666.png" width="960.00" height="389.00" transform="matrix(1.07, 0.00, -0.00, -1.07, 0.0, 316.0)"></image><text xml:space="preserve" font-family="BebasNeue" font-size="68.0" fill="#EB5C56" transform="matrix(1.00, 0.00, -0.00, -1.00, 224.0, 221.0)">N</text><text xml:space="preserve" font-family="BebasNeue" font-size="68.0" fill="#EB5C56" transform="matrix(1.00, 0.00, -0.00, -1.00, 253.0, 221.0)">o</text><text xml:space="preserve" font-family="BebasNeue" font-size="68.0" fill="#EB5C56" transform="matrix(1.00, 0.00, -0.00, -1.00, 279.9, 221.0)">v</text><text xml:space="preserve" font-family="BebasNeue" font-size="68.0" fill="#EB5C56" transform="matrix(1.00, 0.00, -0.00, -1.00, 307.2, 221.0)">e</text><text xml:space="preserve" font-family="BebasNeue" font-size="68.0" fill="#EB5C56" transform="matrix(1.00, 0.00, -0.00, -1.00, 332.3, 221.0)">m</text><text xml:space="preserve" font-family="BebasNeue" font-size="68.0" fill="#EB5C56" transform="matrix(1.00, 0.00, -0.00, -1.00, 369.0, 221.0)">b</text><text xml:space="preserve" font-family="BebasNeue" font-size="68.0" fill="#EB5C56" transform="matrix(1.00, 0.00, -0.00, -1.00, 396.7, 221.0)">e</text><text xml:space="preserve" font-family="BebasNeue" font-size="68.0" fill="#EB5C56" transform="matrix(1.00, 0.00, -0.00, -1.00, 421.7, 221.0)">r</text><text xml:space="preserve" font-family="BebasNeue" font-size="68.0" fill="#EB5C56" transform="matrix(1.00, 0.00, -0.00, -1.00, 449.0, 221.0)"> </text><text xml:space="preserve" font-family="BebasNeue" font-size="68.0" fill="#EB5C56" transform="matrix(1.00, 0.00, -0.00, -1.00, 459.6, 221.0)">7</text><text xml:space="preserve" font-family="BebasNeue" font-size="68.0" fill="#EB5C56" transform="matrix(1.00, 0.00, -0.00, -1.00, 486.5, 221.0)">t</text><text xml:space="preserve" font-family="BebasNeue" font-size="68.0" fill="#EB5C56" transform="matrix(1.00, 0.00, -0.00, -1.00, 510.7, 221.0)">h</text><text xml:space="preserve" font-family="BebasNeue" font-size="68.0" fill="#EB5C56" transform="matrix(1.00, 0.00, -0.00, -1.00, 539.7, 221.0)"> </text><text xml:space="preserve" font-family="BebasNeue" font-size="68.0" fill="#EB5C56" transform="matrix(1.00, 0.00, -0.00, -1.00, 550.3, 221.0)">&amp;</text><text xml:space="preserve" font-family="BebasNeue" font-size="68.0" fill="#EB5C56" transform="matrix(1.00, 0.00, -0.00, -1.00, 578.4, 221.0)"> </text><text xml:space="preserve" font-family="BebasNeue" font-size="68.0" fill="#EB5C56" transform="matrix(1.00, 0.00, -0.00, -1.00, 589.0, 221.0)">8</text><text xml:space="preserve" font-family="BebasNeue" font-size="68.0" fill="#EB5C56" transform="matrix(1.00, 0.00, -0.00, -1.00, 615.9, 221.0)">t</text><text xml:space="preserve" font-family="BebasNeue" font-size="68.0" fill="#EB5C56" transform="matrix(1.00, 0.00, -0.00, -1.00, 640.1, 221.0)">h</text><text xml:space="preserve" font-family="BebasNeue" font-size="68.0" fill="#EB5C56" transform="matrix(1.00, 0.00, -0.00, -1.00, 669.1, 221.0)">,</text><text xml:space="preserve" font-family="BebasNeue" font-size="68.0" fill="#EB5C56" transform="matrix(1.00, 0.00, -0.00, -1.00, 681.8, 221.0)"> </text><text xml:space="preserve" font-family="BebasNeue" font-size="68.0" fill="#EB5C56" transform="matrix(1.00, 0.00, -0.00, -1.00, 692.3, 221.0)">2</text><text xml:space="preserve" font-family="BebasNeue" font-size="68.0" fill="#EB5C56" transform="matrix(1.00, 0.00, -0.00, -1.00, 719.2, 221.0)">0</text><text xml:space="preserve" font-family="BebasNeue" font-size="68.0" fill="#EB5C56" transform="matrix(1.00, 0.00, -0.00, -1.00, 746.2, 221.0)">1</text><text xml:space="preserve" font-family="BebasNeue" font-size="68.0" fill="#EB5C56" transform="matrix(1.00, 0.00, -0.00, -1.00, 773.1, 221.0)">5</text><text xml:space="preserve" font-family="BebasNeue" font-size="90.0" fill="#EE2323" transform="matrix(1.00, 0.00, -0.00, -1.00, 55.0, 98.0)">O</text><text xml:space="preserve" font-family="BebasNeue" font-size="90.0" fill="#EE2323" transform="matrix(1.00, 0.00, -0.00, -1.00, 90.6, 98.0)">p</text><text xml:space="preserve" font-family="BebasNeue" font-size="90.0" fill="#EE2323" transform="matrix(1.00, 0.00, -0.00, -1.00, 124.6, 98.0)">e</text><text xml:space="preserve" font-family="BebasNeue" font-size="90.0" fill="#EE2323" transform="matrix(1.00, 0.00, -0.00, -1.00, 157.7, 98.0)">n</text><text xml:space="preserve" font-family="BebasNeue" font-size="90.0" fill="#EE2323" transform="matrix(1.00, 0.00, -0.00, -1.00, 196.1, 98.0)"> </text><text xml:space="preserve" font-family="BebasNeue" font-size="90.0" fill="#EE2323" transform="matrix(1.00, 0.00, -0.00, -1.00, 210.1, 98.0)">t</text><text xml:space="preserve" font-family="BebasNeue" font-size="90.0" fill="#EE2323" transform="matrix(1.00, 0.00, -0.00, -1.00, 242.1, 98.0)">h</text><text xml:space="preserve" font-family="BebasNeue" font-size="90.0" fill="#EE2323" transform="matrix(1.00, 0.00, -0.00, -1.00, 280.5, 98.0)">e</text><text xml:space="preserve" font-family="BebasNeue" font-size="90.0" fill="#EE2323" transform="matrix(1.00, 0.00, -0.00, -1.00, 313.7, 98.0)"> </text><text xml:space="preserve" font-family="BebasNeue" font-size="90.0" fill="#EE2323" transform="matrix(1.00, 0.00, -0.00, -1.00, 327.6, 98.0)">d</text><text xml:space="preserve" font-family="BebasNeue" font-size="90.0" fill="#EE2323" transform="matrix(1.00, 0.00, -0.00, -1.00, 364.3, 98.0)">o</text><text xml:space="preserve" font-family="BebasNeue" font-size="90.0" fill="#EE2323" transform="matrix(1.00, 0.00, -0.00, -1.00, 400.0, 98.0)">o</text><text xml:space="preserve" font-family="BebasNeue" font-size="90.0" fill="#EE2323" transform="matrix(1.00, 0.00, -0.00, -1.00, 435.6, 98.0)">r</text><text xml:space="preserve" font-family="BebasNeue" font-size="90.0" fill="#EE2323" transform="matrix(1.00, 0.00, -0.00, -1.00, 471.8, 98.0)"> </text><text xml:space="preserve" font-family="BebasNeue" font-size="90.0" fill="#EE2323" transform="matrix(1.00, 0.00, -0.00, -1.00, 485.7, 98.0)">t</text><text xml:space="preserve" font-family="BebasNeue" font-size="90.0" fill="#EE2323" transform="matrix(1.00, 0.00, -0.00, -1.00, 517.8, 98.0)">o</text><text xml:space="preserve" font-family="BebasNeue" font-size="90.0" fill="#EE2323" transform="matrix(1.00, 0.00, -0.00, -1.00, 553.4, 98.0)"> </text><text xml:space="preserve" font-family="BebasNeue" font-size="90.0" fill="#EE2323" transform="matrix(1.00, 0.00, -0.00, -1.00, 567.4, 98.0)">p</text><text xml:space="preserve" font-family="BebasNeue" font-size="90.0" fill="#EE2323" transform="matrix(1.00, 0.00, -0.00, -1.00, 601.3, 98.0)">r</text><text xml:space="preserve" font-family="BebasNeue" font-size="90.0" fill="#EE2323" transform="matrix(1.00, 0.00, -0.00, -1.00, 637.5, 98.0)">o</text><text xml:space="preserve" font-family="BebasNeue" font-size="90.0" fill="#EE2323" transform="matrix(1.00, 0.00, -0.00, -1.00, 673.1, 98.0)">g</text><text xml:space="preserve" font-family="BebasNeue" font-size="90.0" fill="#EE2323" transform="matrix(1.00, 0.00, -0.00, -1.00, 708.2, 98.0)">r</text><text xml:space="preserve" font-family="BebasNeue" font-size="90.0" fill="#EE2323" transform="matrix(1.00, 0.00, -0.00, -1.00, 744.4, 98.0)">a</text><text xml:space="preserve" font-family="BebasNeue" font-size="90.0" fill="#EE2323" transform="matrix(1.00, 0.00, -0.00, -1.00, 781.0, 98.0)">m</text><text xml:space="preserve" font-family="BebasNeue" font-size="90.0" fill="#EE2323" transform="matrix(1.00, 0.00, -0.00, -1.00, 829.7, 98.0)">m</text><text xml:space="preserve" font-family="BebasNeue" font-size="90.0" fill="#EE2323" transform="matrix(1.00, 0.00, -0.00, -1.00, 878.4, 98.0)">i</text><text xml:space="preserve" font-family="BebasNeue" font-size="90.0" fill="#EE2323" transform="matrix(1.00, 0.00, -0.00, -1.00, 895.5, 98.0)">n</text><text xml:space="preserve" font-family="BebasNeue" font-size="90.0" fill="#EE2323" transform="matrix(1.00, 0.00, -0.00, -1.00, 933.9, 98.0)">g</text><image xlink:href="C3401E016D3EABC70E86236482F7AE10.png" width="1366.00" height="721.00" transform="matrix(1.00, 0.00, -0.00, -1.00, -128.0, 1030.6)" opacity="0.50"></image><path d="M -125.0 1029.6 L 1235.1 1029.6 L 1235.1 314.9 L -125.0 314.9 Z M -125.0 1029.6 " fill="#C82505"></path><image xlink:href="6D7F8163FB117EF192F7CAAEA0CEC05C.png" width="683.00" height="206.00" transform="matrix(1.00, 0.00, -0.00, -1.00, 214.0, 653.0)"></image></g></svg>